<?xml version="1.0" encoding="UTF-8"?>
<svg id="_레이어_1" data-name="레이어_1" xmlns="http://www.w3.org/2000/svg" version="1.1" viewBox="0 0 1023 1023">
  <!-- Generator: Adobe Illustrator 30.0.0, SVG Export Plug-In . SVG Version: 2.1.1 Build 123)  -->
  <g>
    <rect x="310" y="62" width="31.93" height="31.93"/>
    <rect x="341" y="62" width="31.93" height="31.93"/>
    <rect x="372" y="62" width="31.93" height="31.93"/>
    <rect x="403" y="62" width="31.93" height="31.93"/>
    <rect x="434" y="62" width="31.93" height="31.93"/>
    <rect x="496" y="62" width="31.93" height="31.93"/>
    <rect x="589" y="62" width="31.93" height="31.93"/>
    <rect x="620" y="62" width="31.93" height="31.93"/>
    <rect x="310" y="93" width="31.93" height="31.93"/>
    <rect x="341" y="93" width="31.93" height="31.93"/>
    <rect x="372" y="93" width="31.93" height="31.93"/>
    <rect x="434" y="93" width="31.93" height="31.93"/>
    <rect x="496" y="93" width="31.93" height="31.93"/>
    <rect x="527" y="93" width="31.93" height="31.93"/>
    <rect x="589" y="93" width="31.93" height="31.93"/>
    <rect x="682" y="93" width="31.93" height="31.93"/>
    <rect x="310" y="124" width="31.93" height="31.93"/>
    <rect x="465" y="124" width="31.93" height="31.93"/>
    <rect x="496" y="124" width="31.93" height="31.93"/>
    <rect x="620" y="124" width="31.93" height="31.93"/>
    <rect x="651" y="124" width="31.93" height="31.93"/>
    <rect x="682" y="124" width="31.93" height="31.93"/>
    <rect x="372" y="155" width="31.93" height="31.93"/>
    <rect x="465" y="155" width="31.93" height="31.93"/>
    <rect x="527" y="155" width="31.93" height="31.93"/>
    <rect x="558" y="155" width="31.93" height="31.93"/>
    <rect x="589" y="155" width="31.93" height="31.93"/>
    <rect x="341" y="186" width="31.93" height="31.93"/>
    <rect x="372" y="186" width="31.93" height="31.93"/>
    <rect x="403" y="186" width="31.93" height="31.93"/>
    <rect x="496" y="186" width="31.93" height="31.93"/>
    <rect x="589" y="186" width="31.93" height="31.93"/>
    <rect x="620" y="186" width="31.93" height="31.93"/>
    <rect x="651" y="186" width="31.93" height="31.93"/>
    <rect x="310" y="217" width="31.93" height="31.93"/>
    <rect x="341" y="217" width="31.93" height="31.93"/>
    <rect x="558" y="217" width="31.93" height="31.93"/>
    <rect x="589" y="217" width="31.93" height="31.93"/>
    <rect x="310" y="248" width="31.93" height="31.93"/>
    <rect x="372" y="248" width="31.93" height="31.93"/>
    <rect x="434" y="248" width="31.93" height="31.93"/>
    <rect x="496" y="248" width="31.93" height="31.93"/>
    <rect x="558" y="248" width="31.93" height="31.93"/>
    <rect x="620" y="248" width="31.93" height="31.93"/>
    <rect x="682" y="248" width="31.93" height="31.93"/>
    <rect x="310" y="279" width="31.93" height="31.93"/>
    <rect x="341" y="279" width="31.93" height="31.93"/>
    <rect x="372" y="279" width="31.93" height="31.93"/>
    <rect x="465" y="279" width="31.93" height="31.93"/>
    <rect x="496" y="279" width="31.93" height="31.93"/>
    <rect x="558" y="279" width="31.93" height="31.93"/>
    <rect x="589" y="279" width="31.93" height="31.93"/>
    <rect x="620" y="279" width="31.93" height="31.93"/>
    <rect x="651" y="279" width="31.93" height="31.93"/>
    <rect x="124" y="310" width="31.93" height="31.93"/>
    <rect x="155" y="310" width="31.93" height="31.93"/>
    <rect x="186" y="310" width="31.93" height="31.93"/>
    <rect x="248" y="310" width="31.93" height="31.93"/>
    <rect x="310" y="310" width="31.93" height="31.93"/>
    <rect x="341" y="310" width="31.93" height="31.93"/>
    <rect x="403" y="310" width="31.93" height="31.93"/>
    <rect x="434" y="310" width="31.93" height="31.93"/>
    <rect x="558" y="310" width="31.93" height="31.93"/>
    <rect x="682" y="310" width="31.93" height="31.93"/>
    <rect x="713" y="310" width="31.93" height="31.93"/>
    <rect x="744" y="310" width="31.93" height="31.93"/>
    <rect x="775" y="310" width="31.93" height="31.93"/>
    <rect x="868" y="310" width="31.93" height="31.93"/>
    <rect x="899" y="310" width="31.93" height="31.93"/>
    <rect x="930" y="310" width="31.93" height="31.93"/>
    <rect x="62" y="341" width="31.93" height="31.93"/>
    <rect x="155" y="341" width="31.93" height="31.93"/>
    <rect x="217" y="341" width="31.93" height="31.93"/>
    <rect x="310" y="341" width="31.93" height="31.93"/>
    <rect x="434" y="341" width="31.93" height="31.93"/>
    <rect x="496" y="341" width="31.93" height="31.93"/>
    <rect x="620" y="341" width="31.93" height="31.93"/>
    <rect x="651" y="341" width="31.93" height="31.93"/>
    <rect x="682" y="341" width="31.93" height="31.93"/>
    <rect x="713" y="341" width="31.93" height="31.93"/>
    <rect x="744" y="341" width="31.93" height="31.93"/>
    <rect x="775" y="341" width="31.93" height="31.93"/>
    <rect x="806" y="341" width="31.93" height="31.93"/>
    <rect x="837" y="341" width="31.93" height="31.93"/>
    <rect x="930" y="341" width="31.93" height="31.93"/>
    <rect x="62" y="372" width="31.93" height="31.93"/>
    <rect x="93" y="372" width="31.93" height="31.93"/>
    <rect x="217" y="372" width="31.93" height="31.93"/>
    <rect x="248" y="372" width="31.93" height="31.93"/>
    <rect x="341" y="372" width="31.93" height="31.93"/>
    <rect x="372" y="372" width="31.93" height="31.93"/>
    <rect x="434" y="372" width="31.93" height="31.93"/>
    <rect x="558" y="372" width="31.93" height="31.93"/>
    <rect x="589" y="372" width="31.93" height="31.93"/>
    <rect x="620" y="372" width="31.93" height="31.93"/>
    <rect x="713" y="372" width="31.93" height="31.93"/>
    <rect x="744" y="372" width="31.93" height="31.93"/>
    <rect x="806" y="372" width="31.93" height="31.93"/>
    <rect x="124" y="403" width="31.93" height="31.93"/>
    <rect x="155" y="403" width="31.93" height="31.93"/>
    <rect x="186" y="403" width="31.93" height="31.93"/>
    <rect x="341" y="403" width="31.93" height="31.93"/>
    <rect x="372" y="403" width="31.93" height="31.93"/>
    <rect x="403" y="403" width="31.93" height="31.93"/>
    <rect x="434" y="403" width="31.93" height="31.93"/>
    <rect x="465" y="403" width="31.93" height="31.93"/>
    <rect x="558" y="403" width="31.93" height="31.93"/>
    <rect x="589" y="403" width="31.93" height="31.93"/>
    <rect x="620" y="403" width="31.93" height="31.93"/>
    <rect x="651" y="403" width="31.93" height="31.93"/>
    <rect x="713" y="403" width="31.93" height="31.93"/>
    <rect x="744" y="403" width="31.93" height="31.93"/>
    <rect x="837" y="403" width="31.93" height="31.93"/>
    <rect x="899" y="403" width="31.93" height="31.93"/>
    <rect x="93" y="434" width="31.93" height="31.93"/>
    <rect x="155" y="434" width="31.93" height="31.93"/>
    <rect x="186" y="434" width="31.93" height="31.93"/>
    <rect x="217" y="434" width="31.93" height="31.93"/>
    <rect x="248" y="434" width="31.93" height="31.93"/>
    <rect x="279" y="434" width="31.93" height="31.93"/>
    <rect x="496" y="434" width="31.93" height="31.93"/>
    <rect x="620" y="434" width="31.93" height="31.93"/>
    <rect x="651" y="434" width="31.93" height="31.93"/>
    <rect x="682" y="434" width="31.93" height="31.93"/>
    <rect x="713" y="434" width="31.93" height="31.93"/>
    <rect x="775" y="434" width="31.93" height="31.93"/>
    <rect x="868" y="434" width="31.93" height="31.93"/>
    <rect x="899" y="434" width="31.93" height="31.93"/>
    <rect x="930" y="434" width="31.93" height="31.93"/>
    <rect x="93" y="465" width="31.93" height="31.93"/>
    <rect x="124" y="465" width="31.93" height="31.93"/>
    <rect x="155" y="465" width="31.93" height="31.93"/>
    <rect x="186" y="465" width="31.93" height="31.93"/>
    <rect x="217" y="465" width="31.93" height="31.93"/>
    <rect x="279" y="465" width="31.93" height="31.93"/>
    <rect x="341" y="465" width="31.93" height="31.93"/>
    <rect x="372" y="465" width="31.93" height="31.93"/>
    <rect x="496" y="465" width="31.93" height="31.93"/>
    <rect x="527" y="465" width="31.93" height="31.93"/>
    <rect x="589" y="465" width="31.93" height="31.93"/>
    <rect x="620" y="465" width="31.93" height="31.93"/>
    <rect x="651" y="465" width="31.93" height="31.93"/>
    <rect x="682" y="465" width="31.93" height="31.93"/>
    <rect x="713" y="465" width="31.93" height="31.93"/>
    <rect x="744" y="465" width="31.93" height="31.93"/>
    <rect x="806" y="465" width="31.93" height="31.93"/>
    <rect x="837" y="465" width="31.93" height="31.93"/>
    <rect x="899" y="465" width="31.93" height="31.93"/>
    <rect x="930" y="465" width="31.93" height="31.93"/>
    <rect x="93" y="496" width="31.93" height="31.93"/>
    <rect x="186" y="496" width="31.93" height="31.93"/>
    <rect x="248" y="496" width="31.93" height="31.93"/>
    <rect x="279" y="496" width="31.93" height="31.93"/>
    <rect x="403" y="496" width="31.93" height="31.93"/>
    <rect x="434" y="496" width="31.93" height="31.93"/>
    <rect x="465" y="496" width="31.93" height="31.93"/>
    <rect x="496" y="496" width="31.93" height="31.93"/>
    <rect x="558" y="496" width="31.93" height="31.93"/>
    <rect x="589" y="496" width="31.93" height="31.93"/>
    <rect x="682" y="496" width="31.93" height="31.93"/>
    <rect x="713" y="496" width="31.93" height="31.93"/>
    <rect x="744" y="496" width="31.93" height="31.93"/>
    <rect x="775" y="496" width="31.93" height="31.93"/>
    <rect x="62" y="527" width="31.93" height="31.93"/>
    <rect x="124" y="527" width="31.93" height="31.93"/>
    <rect x="186" y="527" width="31.93" height="31.93"/>
    <rect x="310" y="527" width="31.93" height="31.93"/>
    <rect x="341" y="527" width="31.93" height="31.93"/>
    <rect x="372" y="527" width="31.93" height="31.93"/>
    <rect x="496" y="527" width="31.93" height="31.93"/>
    <rect x="527" y="527" width="31.93" height="31.93"/>
    <rect x="558" y="527" width="31.93" height="31.93"/>
    <rect x="589" y="527" width="31.93" height="31.93"/>
    <rect x="620" y="527" width="31.93" height="31.93"/>
    <rect x="713" y="527" width="31.93" height="31.93"/>
    <rect x="744" y="527" width="31.93" height="31.93"/>
    <rect x="806" y="527" width="31.93" height="31.93"/>
    <rect x="837" y="527" width="31.93" height="31.93"/>
    <rect x="930" y="527" width="31.93" height="31.93"/>
    <rect x="155" y="558" width="31.93" height="31.93"/>
    <rect x="186" y="558" width="31.93" height="31.93"/>
    <rect x="248" y="558" width="31.93" height="31.93"/>
    <rect x="341" y="558" width="31.93" height="31.93"/>
    <rect x="372" y="558" width="31.93" height="31.93"/>
    <rect x="589" y="558" width="31.93" height="31.93"/>
    <rect x="620" y="558" width="31.93" height="31.93"/>
    <rect x="775" y="558" width="31.93" height="31.93"/>
    <rect x="837" y="558" width="31.93" height="31.93"/>
    <rect x="868" y="558" width="31.93" height="31.93"/>
    <rect x="930" y="558" width="31.93" height="31.93"/>
    <rect x="62" y="589" width="31.93" height="31.93"/>
    <rect x="124" y="589" width="31.93" height="31.93"/>
    <rect x="186" y="589" width="31.93" height="31.93"/>
    <rect x="217" y="589" width="31.93" height="31.93"/>
    <rect x="279" y="589" width="31.93" height="31.93"/>
    <rect x="310" y="589" width="31.93" height="31.93"/>
    <rect x="558" y="589" width="31.93" height="31.93"/>
    <rect x="589" y="589" width="31.93" height="31.93"/>
    <rect x="620" y="589" width="31.93" height="31.93"/>
    <rect x="682" y="589" width="31.93" height="31.93"/>
    <rect x="713" y="589" width="31.93" height="31.93"/>
    <rect x="744" y="589" width="31.93" height="31.93"/>
    <rect x="806" y="589" width="31.93" height="31.93"/>
    <rect x="837" y="589" width="31.93" height="31.93"/>
    <rect x="899" y="589" width="31.93" height="31.93"/>
    <rect x="930" y="589" width="31.93" height="31.93"/>
    <rect x="62" y="620" width="31.93" height="31.93"/>
    <rect x="124" y="620" width="31.93" height="31.93"/>
    <rect x="155" y="620" width="31.93" height="31.93"/>
    <rect x="186" y="620" width="31.93" height="31.93"/>
    <rect x="217" y="620" width="31.93" height="31.93"/>
    <rect x="248" y="620" width="31.93" height="31.93"/>
    <rect x="279" y="620" width="31.93" height="31.93"/>
    <rect x="372" y="620" width="31.93" height="31.93"/>
    <rect x="527" y="620" width="31.93" height="31.93"/>
    <rect x="558" y="620" width="31.93" height="31.93"/>
    <rect x="589" y="620" width="31.93" height="31.93"/>
    <rect x="744" y="620" width="31.93" height="31.93"/>
    <rect x="775" y="620" width="31.93" height="31.93"/>
    <rect x="837" y="620" width="31.93" height="31.93"/>
    <rect x="62" y="651" width="31.93" height="31.93"/>
    <rect x="186" y="651" width="31.93" height="31.93"/>
    <rect x="217" y="651" width="31.93" height="31.93"/>
    <rect x="341" y="651" width="31.93" height="31.93"/>
    <rect x="403" y="651" width="31.93" height="31.93"/>
    <rect x="527" y="651" width="31.93" height="31.93"/>
    <rect x="558" y="651" width="31.93" height="31.93"/>
    <rect x="589" y="651" width="31.93" height="31.93"/>
    <rect x="620" y="651" width="31.93" height="31.93"/>
    <rect x="682" y="651" width="31.93" height="31.93"/>
    <rect x="744" y="651" width="31.93" height="31.93"/>
    <rect x="775" y="651" width="31.93" height="31.93"/>
    <rect x="837" y="651" width="31.93" height="31.93"/>
    <rect x="930" y="651" width="31.93" height="31.93"/>
    <rect x="62" y="682" width="31.93" height="31.93"/>
    <rect x="124" y="682" width="31.93" height="31.93"/>
    <rect x="155" y="682" width="31.93" height="31.93"/>
    <rect x="186" y="682" width="31.93" height="31.93"/>
    <rect x="217" y="682" width="31.93" height="31.93"/>
    <rect x="248" y="682" width="31.93" height="31.93"/>
    <rect x="279" y="682" width="31.93" height="31.93"/>
    <rect x="372" y="682" width="31.93" height="31.93"/>
    <rect x="434" y="682" width="31.93" height="31.93"/>
    <rect x="465" y="682" width="31.93" height="31.93"/>
    <rect x="589" y="682" width="31.93" height="31.93"/>
    <rect x="682" y="682" width="31.93" height="31.93"/>
    <rect x="713" y="682" width="31.93" height="31.93"/>
    <rect x="744" y="682" width="31.93" height="31.93"/>
    <rect x="775" y="682" width="31.93" height="31.93"/>
    <rect x="806" y="682" width="31.93" height="31.93"/>
    <rect x="837" y="682" width="31.93" height="31.93"/>
    <rect x="868" y="682" width="31.93" height="31.93"/>
    <rect x="310" y="713" width="31.93" height="31.93"/>
    <rect x="403" y="713" width="31.93" height="31.93"/>
    <rect x="589" y="713" width="31.93" height="31.93"/>
    <rect x="620" y="713" width="31.93" height="31.93"/>
    <rect x="651" y="713" width="31.93" height="31.93"/>
    <rect x="682" y="713" width="31.93" height="31.93"/>
    <rect x="806" y="713" width="31.93" height="31.93"/>
    <rect x="837" y="713" width="31.93" height="31.93"/>
    <rect x="899" y="713" width="31.93" height="31.93"/>
    <rect x="930" y="713" width="31.93" height="31.93"/>
    <rect x="372" y="744" width="31.93" height="31.93"/>
    <rect x="434" y="744" width="31.93" height="31.93"/>
    <rect x="496" y="744" width="31.93" height="31.93"/>
    <rect x="527" y="744" width="31.93" height="31.93"/>
    <rect x="651" y="744" width="31.93" height="31.93"/>
    <rect x="682" y="744" width="31.93" height="31.93"/>
    <rect x="744" y="744" width="31.93" height="31.93"/>
    <rect x="806" y="744" width="31.93" height="31.93"/>
    <rect x="341" y="775" width="31.93" height="31.93"/>
    <rect x="403" y="775" width="31.93" height="31.93"/>
    <rect x="465" y="775" width="31.93" height="31.93"/>
    <rect x="496" y="775" width="31.93" height="31.93"/>
    <rect x="558" y="775" width="31.93" height="31.93"/>
    <rect x="651" y="775" width="31.93" height="31.93"/>
    <rect x="682" y="775" width="31.93" height="31.93"/>
    <rect x="806" y="775" width="31.93" height="31.93"/>
    <rect x="837" y="775" width="31.93" height="31.93"/>
    <rect x="930" y="775" width="31.93" height="31.93"/>
    <rect x="310" y="806" width="31.93" height="31.93"/>
    <rect x="341" y="806" width="31.93" height="31.93"/>
    <rect x="465" y="806" width="31.93" height="31.93"/>
    <rect x="496" y="806" width="31.93" height="31.93"/>
    <rect x="558" y="806" width="31.93" height="31.93"/>
    <rect x="682" y="806" width="31.93" height="31.93"/>
    <rect x="713" y="806" width="31.93" height="31.93"/>
    <rect x="744" y="806" width="31.93" height="31.93"/>
    <rect x="775" y="806" width="31.93" height="31.93"/>
    <rect x="806" y="806" width="31.93" height="31.93"/>
    <rect x="837" y="806" width="31.93" height="31.93"/>
    <rect x="868" y="806" width="31.93" height="31.93"/>
    <rect x="899" y="806" width="31.93" height="31.93"/>
    <rect x="310" y="837" width="31.93" height="31.93"/>
    <rect x="403" y="837" width="31.93" height="31.93"/>
    <rect x="558" y="837" width="31.93" height="31.93"/>
    <rect x="651" y="837" width="31.93" height="31.93"/>
    <rect x="682" y="837" width="31.93" height="31.93"/>
    <rect x="713" y="837" width="31.93" height="31.93"/>
    <rect x="775" y="837" width="31.93" height="31.93"/>
    <rect x="310" y="868" width="31.93" height="31.93"/>
    <rect x="341" y="868" width="31.93" height="31.93"/>
    <rect x="372" y="868" width="31.93" height="31.93"/>
    <rect x="465" y="868" width="31.93" height="31.93"/>
    <rect x="527" y="868" width="31.93" height="31.93"/>
    <rect x="620" y="868" width="31.93" height="31.93"/>
    <rect x="651" y="868" width="31.93" height="31.93"/>
    <rect x="682" y="868" width="31.93" height="31.93"/>
    <rect x="713" y="868" width="31.93" height="31.93"/>
    <rect x="744" y="868" width="31.93" height="31.93"/>
    <rect x="775" y="868" width="31.93" height="31.93"/>
    <rect x="806" y="868" width="31.93" height="31.93"/>
    <rect x="837" y="868" width="31.93" height="31.93"/>
    <rect x="868" y="868" width="31.93" height="31.93"/>
    <rect x="899" y="868" width="31.93" height="31.93"/>
    <rect x="372" y="899" width="31.93" height="31.93"/>
    <rect x="403" y="899" width="31.93" height="31.93"/>
    <rect x="434" y="899" width="31.93" height="31.93"/>
    <rect x="496" y="899" width="31.93" height="31.93"/>
    <rect x="589" y="899" width="31.93" height="31.93"/>
    <rect x="620" y="899" width="31.93" height="31.93"/>
    <rect x="651" y="899" width="31.93" height="31.93"/>
    <rect x="682" y="899" width="31.93" height="31.93"/>
    <rect x="713" y="899" width="31.93" height="31.93"/>
    <rect x="744" y="899" width="31.93" height="31.93"/>
    <rect x="806" y="899" width="31.93" height="31.93"/>
    <rect x="899" y="899" width="31.93" height="31.93"/>
    <rect x="341" y="930" width="31.93" height="31.93"/>
    <rect x="372" y="930" width="31.93" height="31.93"/>
    <rect x="403" y="930" width="31.93" height="31.93"/>
    <rect x="465" y="930" width="31.93" height="31.93"/>
    <rect x="496" y="930" width="31.93" height="31.93"/>
    <rect x="527" y="930" width="31.93" height="31.93"/>
    <rect x="620" y="930" width="31.93" height="31.93"/>
    <rect x="651" y="930" width="31.93" height="31.93"/>
    <rect x="744" y="930" width="31.93" height="31.93"/>
    <rect x="806" y="930" width="31.93" height="31.93"/>
    <rect x="868" y="930" width="31.93" height="31.93"/>
  </g>
  <g>
    <path d="M62,62v217h217V62H62ZM248,248H93V93h155v155Z"/>
    <path d="M744,62v217h217V62h-217ZM930,248h-155V93h155v155Z"/>
    <path d="M62,744v217h217v-217H62ZM248,930H93v-155h155v155Z"/>
    <rect x="124" y="124" width="93" height="93"/>
    <rect x="806" y="124" width="93" height="93"/>
    <rect x="124" y="806" width="93" height="93"/>
  </g>
</svg>